<svg width="256" height="167" viewBox="0 0 256 167" fill="none" xmlns="http://www.w3.org/2000/svg">
<path d="M28.8121 124.094C26.7274 124.841 24.5564 125.499 22.2981 126.072C19.2206 126.893 17.2719 127.702 16.4538 128.497C15.6094 129.319 15.1873 130.252 15.1873 131.296C15.1873 132.491 15.6036 133.467 16.4353 134.227C17.2661 134.985 18.4879 135.366 20.1009 135.366C21.7886 135.366 23.3588 134.955 24.8107 134.133C26.2626 133.313 27.2922 132.31 27.9007 131.129C28.5083 129.949 28.8121 128.411 28.8121 126.519V124.094ZM15.6715 116.107L1.19079 114.576C1.73718 112.036 2.52522 110.042 3.55492 108.585C4.58461 107.128 6.06753 105.868 8.00366 104.796C9.39341 104.026 11.3034 103.43 13.7354 103.005C16.1675 102.583 18.7985 102.37 21.6275 102.37C26.1694 102.37 29.8175 102.626 32.5727 103.136C35.327 103.646 37.6222 104.71 39.4584 106.327C40.7491 107.447 41.7672 109.032 42.5116 111.086C43.2559 113.139 43.6276 115.098 43.6276 116.964V134.469C43.6276 136.336 43.7451 137.798 43.9819 138.854C44.2177 139.913 44.732 141.263 45.5269 142.905H31.3062C30.7346 141.885 30.3629 141.107 30.1892 140.572C30.0164 140.037 29.8417 139.198 29.668 138.053C27.6824 139.968 25.7103 141.337 23.7499 142.158C21.0694 143.252 17.9542 143.8 14.407 143.8C9.69039 143.8 6.11023 142.705 3.66653 140.516C1.22185 138.327 0 135.627 0 132.417C0 129.407 0.881201 126.93 2.64265 124.989C4.40507 123.048 7.65527 121.604 12.3952 120.66C18.0784 119.514 21.7633 118.713 23.452 118.252C25.1387 117.791 26.9264 117.188 28.8121 116.442C28.8121 114.576 28.4277 113.27 27.6581 112.522C26.8885 111.776 25.5366 111.404 23.6005 111.404C21.1199 111.404 19.2575 111.802 18.0163 112.599C17.0487 113.22 16.2684 114.388 15.6715 116.107Z" fill="#333333"/>
<path d="M69.6854 88.1874V103.266H78.0239V114.389H69.6854V128.432C69.6854 130.121 69.8475 131.238 70.1706 131.785C70.6656 132.628 71.5342 133.051 72.7764 133.051C73.8915 133.051 75.455 132.728 77.4668 132.081L78.5819 142.569C74.8358 143.389 71.3362 143.8 68.086 143.8C64.3118 143.8 61.5342 143.316 59.7466 142.346C57.9589 141.377 56.639 139.905 55.7821 137.929C54.9261 135.953 54.4981 132.754 54.4981 128.33V114.389H48.9149V103.266H54.4981V95.9885L69.6854 88.1874Z" fill="#333333"/>
<path d="M112.197 124.094C110.112 124.841 107.94 125.499 105.683 126.072C102.606 126.893 100.657 127.702 99.8387 128.497C98.9944 129.319 98.5722 130.252 98.5722 131.296C98.5722 132.491 98.9886 133.467 99.8203 134.227C100.651 134.985 101.873 135.366 103.486 135.366C105.174 135.366 106.744 134.955 108.196 134.133C109.648 133.313 110.677 132.31 111.286 131.129C111.893 129.949 112.197 128.411 112.197 126.519V124.094ZM99.0565 116.107L84.5758 114.576C85.1221 112.036 85.9102 110.042 86.9399 108.585C87.9696 107.128 89.4525 105.868 91.3886 104.796C92.7774 104.026 94.6883 103.43 97.1204 103.005C99.5524 102.583 102.183 102.37 105.012 102.37C109.554 102.37 113.202 102.626 115.958 103.136C118.712 103.646 121.007 104.71 122.843 106.327C124.134 107.447 125.152 109.032 125.896 111.086C126.641 113.139 127.013 115.098 127.013 116.964V134.469C127.013 136.336 127.13 137.798 127.367 138.854C127.603 139.913 128.117 141.263 128.912 142.905H114.691C114.12 141.885 113.748 141.107 113.574 140.572C113.4 140.037 113.227 139.198 113.053 138.053C111.067 139.968 109.094 141.337 107.135 142.158C104.454 143.252 101.339 143.8 97.791 143.8C93.0753 143.8 89.4952 142.705 87.0515 140.516C84.6068 138.327 83.3849 135.627 83.3849 132.417C83.3849 129.407 84.2652 126.93 86.0276 124.989C87.79 123.048 91.0402 121.604 95.7801 120.66C101.463 119.514 105.148 118.713 106.837 118.252C108.524 117.791 110.311 117.188 112.197 116.442C112.197 114.576 111.813 113.27 111.043 112.522C110.273 111.776 108.922 111.404 106.985 111.404C104.504 111.404 102.642 111.802 101.401 112.599C100.434 113.22 99.6524 114.388 99.0565 116.107Z" fill="#333333"/>
<path d="M136.208 103.266H150.354V109.051C152.392 106.639 154.447 104.921 156.523 103.901C158.598 102.881 161.102 102.37 164.035 102.37C167.191 102.37 169.689 102.93 171.529 104.05C173.368 105.169 174.872 106.837 176.039 109.051C178.418 106.464 180.588 104.703 182.545 103.77C184.503 102.837 186.918 102.37 189.794 102.37C194.032 102.37 197.34 103.634 199.719 106.159C202.098 108.684 203.289 112.635 203.289 118.009V142.904H188.1V120.323C188.1 118.532 187.754 117.2 187.061 116.33C186.047 114.962 184.786 114.276 183.278 114.276C181.497 114.276 180.063 114.923 178.974 116.218C177.886 117.512 177.342 119.589 177.342 122.451V142.904H162.154V121.07C162.154 119.328 162.054 118.146 161.855 117.523C161.531 116.529 160.971 115.727 160.174 115.117C159.378 114.507 158.443 114.201 157.374 114.201C155.63 114.201 154.197 114.862 153.077 116.18C151.956 117.499 151.396 119.664 151.396 122.674V142.904H136.208V103.266Z" fill="#333333"/>
<path d="M239.284 124.094C237.201 124.841 235.029 125.499 232.77 126.072C229.693 126.893 227.744 127.702 226.926 128.497C226.082 129.319 225.66 130.252 225.66 131.296C225.66 132.491 226.077 133.467 226.907 134.227C227.738 134.985 228.96 135.366 230.573 135.366C232.263 135.366 233.831 134.955 235.283 134.133C236.735 133.313 237.764 132.31 238.373 131.129C238.98 129.949 239.284 128.411 239.284 126.519V124.094ZM226.144 116.107L211.663 114.576C212.209 112.036 212.996 110.042 214.027 108.585C215.058 107.128 216.54 105.868 218.476 104.796C219.866 104.026 221.776 103.43 224.209 103.005C226.642 102.583 229.272 102.37 232.102 102.37C236.641 102.37 240.291 102.626 243.044 103.136C245.799 103.646 248.095 104.71 249.932 106.327C251.221 107.447 252.239 109.032 252.984 111.086C253.728 113.139 254.101 115.098 254.101 116.964V134.469C254.101 136.336 254.219 137.798 254.454 138.854C254.689 139.913 255.204 141.263 256 142.905H241.778C241.207 141.885 240.836 141.107 240.661 140.572C240.489 140.037 240.314 139.198 240.141 138.053C238.155 139.968 236.183 141.337 234.222 142.158C231.541 143.252 228.426 143.8 224.879 143.8C220.163 143.8 216.582 142.705 214.139 140.516C211.695 138.327 210.472 135.627 210.472 132.417C210.472 129.407 211.353 126.93 213.116 124.989C214.877 123.048 218.128 121.604 222.868 120.66C228.551 119.514 232.235 118.713 233.924 118.252C235.612 117.791 237.4 117.188 239.284 116.442C239.284 114.576 238.9 113.27 238.131 112.522C237.362 111.776 236.009 111.404 234.073 111.404C231.592 111.404 229.731 111.802 228.489 112.599C227.521 113.22 226.741 114.388 226.144 116.107Z" fill="#333333"/>
<path fill-rule="evenodd" clip-rule="evenodd" d="M132.532 87.9588C131.817 82.7442 132.136 75.9969 132.136 69.6769C132.136 63.351 131.092 56.6417 133.721 52.5889H139.667C136.358 56.4266 136.722 63.9445 136.892 71.2669C143.946 67.4768 148.757 61.4389 151.16 52.9859H156.709C154.042 63.6477 148.613 70.0048 140.459 75.2408C138.622 76.4192 135.847 77.55 136.892 80.8049C152.262 74.226 162.43 62.4304 161.466 39.4758H136.099C133.855 35.7636 131.211 32.4542 127.378 30.3348V24.7718C133.002 26.2859 136.825 29.607 138.874 34.7068H150.764C147.005 23.7715 139.748 16.3441 127.378 14.0418V8.87486C143.022 11.4729 152.154 20.5964 156.313 34.7068H160.276C154.662 15.9617 142.205 4.07857 116.679 5.2988C115.755 9.67273 116.545 15.7622 116.282 20.7968C111.221 22.0813 107.56 24.7699 104.788 28.3478C110.703 28.9803 111.498 24.478 116.282 23.9768V29.9378C112.77 33.9663 103.766 32.4902 96.4643 32.7198C99.5631 25.6262 104.68 20.5565 111.922 17.6178V6.09381C94.6475 11.0282 83.8954 22.5016 81.8001 42.6548C90.389 43.5812 100.692 42.7871 109.941 43.0528C109.901 41.8199 110.12 40.8469 110.733 40.2708C103.334 39.3435 94.2195 40.1365 86.1586 39.8728C88.2782 24.909 96.3071 15.8712 108.355 10.8619C108.708 12.8751 108.225 13.8229 108.355 16.4258C100.745 20.321 95.29 26.3745 92.5008 35.1038C101.496 35.9115 113.426 36.216 119.849 33.1168V8.47783H124.21C124 10.9183 124.662 14.2306 123.812 16.0288C135.262 17.0019 141.618 23.0797 146.404 30.7318C141.386 33.0594 140.24 29.4036 138.08 27.1558C134.618 23.5526 130.066 21.2523 124.21 20.3998C123.687 22.0891 124.896 29.3092 123.812 32.7198C129.295 34.2417 133.132 37.4158 133.721 43.8468H157.9V48.6148H149.576C148.339 53.9112 144.837 62.3789 140.856 64.9089C139.75 57.0932 143.604 53.3274 144.422 48.6148H133.324C131.842 50.705 130.358 52.7932 128.568 54.5759V80.0108C126.837 79.7316 126.335 80.6852 124.605 80.4078C123.696 71.516 124.46 60.9465 124.21 51.3959C130.657 48.6363 129.112 37.553 121.832 37.4888C113.99 37.4188 111.801 49.3057 120.642 51.3959V80.4078C100.444 79.4065 89.9629 66.7353 86.1586 50.6019H91.7079C94.8814 63.5806 102.642 71.9606 115.886 74.8429C116.807 72.1903 116.021 67.8251 116.282 64.5118C109.671 62.1317 105.364 57.4415 102.806 50.9989C103.744 50.0852 106.363 50.8568 107.96 50.6019C110.322 53.5318 112.358 56.7876 116.282 58.1528C116.382 52.2239 110.339 52.4536 109.941 47.0249H99.2389C100.281 56.9774 105.159 63.0785 112.715 66.4979V71.2669C101.957 67.613 96.013 59.1356 93.6896 47.0249H82.1951C84.2632 69.4034 99.9998 86.1538 128.568 83.1908V88.3558C100.343 92.0029 78.35 72.9902 76.2508 49.8069C73.3131 17.3668 97.8317 -1.80068 126.586 0.133778C147.401 1.53207 165.678 17.7297 167.409 40.2708C169.323 65.1677 154.31 81.6699 132.532 87.9588Z" fill="#FC7D35"/>
<path d="M4.14984 151.896H12.1331V153.505H6.08501V158.445H11.6712V160.032H6.08501V166.757H4.14984V151.896Z" fill="#FC7D35"/>
<path d="M54.0798 166.758H52.1447V151.897H54.0798V166.758Z" fill="#FC7D35"/>
<path d="M94.6863 151.896H96.6215V165.147H102.955V166.757H94.6863V151.896Z" fill="#FC7D35"/>
<path d="M154.864 160.231C154.754 158.159 154.621 155.645 154.621 153.814H154.577C154.051 155.534 153.457 157.409 152.708 159.46L150.092 166.668H148.64L146.222 159.592C145.518 157.475 144.945 155.578 144.528 153.814H144.484C144.44 155.668 144.33 158.136 144.198 160.386L143.802 166.758H141.978L143.011 151.897H145.452L147.98 159.085C148.596 160.914 149.081 162.546 149.476 164.09H149.52C149.915 162.59 150.443 160.959 151.103 159.085L153.742 151.897H156.183L157.107 166.758H155.215L154.864 160.231Z" fill="#FC7D35"/>
<path d="M204.989 159.791H199.249V165.147H205.672V166.758H197.314V151.897H205.342V153.506H199.249V158.202H204.989V159.791Z" fill="#FC7D35"/>
<path d="M245.199 164.42C246.056 164.971 247.288 165.391 248.608 165.391C250.564 165.391 251.709 164.354 251.709 162.855C251.709 161.488 250.918 160.672 248.916 159.922C246.497 159.04 245.001 157.762 245.001 155.689C245.001 153.373 246.915 151.654 249.795 151.654C251.289 151.654 252.413 152.007 253.05 152.382L252.523 153.947C252.06 153.66 251.07 153.242 249.73 153.242C247.706 153.242 246.937 154.454 246.937 155.468C246.937 156.858 247.838 157.541 249.884 158.335C252.391 159.305 253.644 160.517 253.644 162.7C253.644 164.994 251.972 167 248.476 167C247.046 167 245.486 166.559 244.694 166.03L245.199 164.42Z" fill="#FC7D35"/>
</svg>
