<svg width="1447" height="403" viewBox="0 0 1447 403" fill="none" xmlns="http://www.w3.org/2000/svg">
<g clip-path="url(#clip0_9_2)">
<path d="M1395.24 394.079C1423.52 394.079 1446.38 371.249 1446.38 342.999C1446.38 314.749 1423.52 292.069 1395.24 292.069C1366.96 292.069 1344.1 314.899 1344.1 342.999C1344.1 371.099 1366.96 394.079 1395.24 394.079Z" fill="white"/>
<path d="M1307.08 391.229V252.399C1307.08 242.329 1313.4 225.509 1324.98 220.999C1336.86 216.489 1347.69 221.749 1360.63 226.559C1403.5 242.939 1436.75 221.299 1442.01 193.349C1447.27 165.409 1428.77 138.509 1400.64 133.399C1366.19 126.939 1341.97 137.749 1313.84 159.399C1311.88 160.899 1306.47 165.559 1304.66 167.059C1298.04 146.169 1278.48 131.149 1255.46 131.149C1227.03 131.149 1203.86 154.139 1203.86 182.679V391.219H1307.06L1307.08 391.229Z" fill="white"/>
<path d="M1136.34 115.069C1164.62 115.069 1187.48 92.239 1187.48 63.989C1187.48 35.739 1164.62 12.909 1136.34 12.909C1108.06 12.909 1085.2 35.739 1085.2 63.989C1085.2 92.239 1108.06 115.069 1136.34 115.069ZM1187.79 297.469C1187.79 360.269 1157.1 400.989 1083.54 400.989H1080.68C1054.96 400.989 1028.03 394.229 1011.18 383.409C981.987 364.629 962.887 333.679 982.147 301.079C1000.05 270.879 1062.48 265.319 1071.66 317.909C1074.97 336.389 1084.74 333.979 1084.74 316.859V191.549C1084.74 154.139 1107.91 131.159 1136.34 131.159C1164.77 131.159 1187.94 154.299 1187.94 182.689V297.479H1187.79V297.469Z" fill="white"/>
<path d="M970.867 373.199C970.867 369.739 969.817 366.589 968.157 363.739L911.597 278.249L950.707 207.189C965.147 182.699 957.027 150.999 932.507 136.579C907.987 122.159 876.247 130.269 861.807 154.759L815.017 238.289V182.699C815.017 154.149 791.847 131.169 763.417 131.169C734.987 131.169 711.817 154.309 711.817 182.699V391.089H815.167V309.499L869.627 391.089H952.967C962.897 391.089 971.017 382.969 971.017 373.059L970.867 373.209H970.847L970.867 373.199Z" fill="white"/>
<path d="M585.307 310.389C579.137 321.659 571.317 328.269 562.137 328.269C552.957 328.269 545.137 321.659 538.967 310.389C532.947 298.969 529.337 284.389 529.337 267.119C529.337 249.849 532.947 235.269 538.967 223.849C545.137 212.579 552.957 205.969 562.137 205.969C571.317 205.969 579.137 212.729 585.307 223.849C589.817 232.259 592.827 242.479 594.177 254.349H697.527C694.517 222.049 680.077 192.599 658.267 171.109C633.747 146.619 599.447 131.299 561.987 131.299C524.527 131.299 490.237 146.629 465.707 171.109C441.187 195.599 425.847 229.849 425.847 267.269C425.847 304.689 441.197 338.929 465.707 363.429C484.517 382.209 517.307 403.239 561.987 403.239C595.537 403.239 626.517 390.919 650.137 370.789C667.437 356.219 693.007 326.759 697.377 280.049H594.027C592.667 291.769 589.667 302.139 585.157 310.549L585.307 310.399V310.389Z" fill="white"/>
<path d="M400.277 97.799C410.657 87.429 417.127 73.159 417.127 57.229C417.127 41.299 410.657 27.029 400.277 16.659C389.897 6.289 375.607 -0.171021 359.657 -0.171021C343.707 -0.171021 329.417 6.289 319.037 16.659C308.657 27.029 302.187 41.299 302.187 57.229C302.187 73.159 308.657 87.429 319.037 97.799L331.677 110.419C352.887 131.599 354.387 137.159 334.237 157.299L322.657 168.859C313.187 178.319 307.307 191.399 307.307 205.669V391.219H411.707V205.669C411.707 191.249 405.847 178.179 396.357 168.859L384.777 157.299C364.617 137.169 366.127 131.609 387.337 110.419L399.977 97.799H400.277Z" fill="white"/>
<path d="M157.327 131.159C119.867 131.159 85.5768 146.489 61.0468 170.969C36.5268 195.459 21.1868 229.709 21.1868 267.129V391.229H124.537V269.229C124.537 254.359 128.147 241.579 134.167 231.819C140.187 222.049 148.157 216.349 157.337 216.349C166.517 216.349 174.487 222.059 180.507 231.819C186.527 241.589 190.137 254.359 190.137 269.229V391.229H293.487V267.129C293.487 229.719 278.137 195.469 253.627 170.969C229.107 146.479 194.807 131.159 157.347 131.159" fill="white"/>
</g>
<defs>
<clipPath id="clip0_9_2">
<rect width="1447" height="403" fill="white"/>
</clipPath>
</defs>
</svg>
