<?xml version="1.0" encoding="utf-8"?>
<!-- Generator: Adobe Illustrator 23.0.6, SVG Export Plug-In . SVG Version: 6.00 Build 0)  -->
<svg version="1.1" id="Amazon_Prime_Video_Logo_Emerging_Market_Off_White_RGB"
	 xmlns="http://www.w3.org/2000/svg" xmlns:xlink="http://www.w3.org/1999/xlink" x="0px" y="0px" viewBox="0 0 950 450"
	 style="enable-background:new 0 0 950 450;" xml:space="preserve">
<style type="text/css">
	.st0{fill:#F5F5F5;}
	.st1{fill-rule:evenodd;clip-rule:evenodd;fill:#F5F5F5;}
</style>
<g>
	<g>
		<path class="st0" d="M80.8,249.8c6.2,0,10.8-2.1,13.7-6.3c2.9-4.2,4.4-10.8,4.4-19.9c0-9.2-1.4-15.9-4.3-20.1
			c-2.9-4.2-7.5-6.3-13.8-6.3c-5.8,0-11.2,1.5-16.3,4.5v43.7C69.4,248.3,74.8,249.8,80.8,249.8L80.8,249.8z M44.4,300.4
			c-1.4,0-2.5-0.3-3.2-0.9c-0.7-0.6-1-1.7-1-3.2V185.5c0-1.6,0.3-2.6,1-3.2c0.7-0.6,1.7-0.9,3.2-0.9h12c2.5,0,4.1,1.2,4.7,3.6
			l1.2,4.3c3.3-3.2,7.3-5.8,12-7.6c4.7-1.9,9.5-2.8,14.4-2.8c10.7,0,19.2,3.9,25.5,11.8s9.4,18.5,9.4,31.9c0,9.2-1.6,17.2-4.7,24.1
			c-3.1,6.9-7.3,12.1-12.6,15.9c-5.3,3.7-11.4,5.6-18.3,5.6c-4.5,0-8.9-0.7-12.9-2.2c-4.1-1.4-7.6-3.4-10.5-6v36.4
			c0,1.5-0.3,2.6-0.9,3.2c-0.6,0.6-1.7,0.9-3.2,0.9L44.4,300.4L44.4,300.4z"/>
		<path class="st0" d="M143.5,266.2c-1.4,0-2.5-0.3-3.1-1c-0.7-0.7-1-1.7-1-3.1v-76.5c0-1.6,0.3-2.6,1-3.2c0.7-0.6,1.7-0.9,3.1-0.9
			h11.9c2.6,0,4.1,1.2,4.6,3.6l2.2,9c4.4-4.9,8.6-8.3,12.5-10.4s8.1-3.1,12.5-3.1h2.3c1.6,0,2.7,0.3,3.3,0.9c0.7,0.6,1,1.7,1,3.2
			v13.9c0,1.4-0.3,2.5-0.9,3.1c-0.6,0.7-1.7,1-3.2,1c-0.8,0-1.8-0.1-3-0.2c-1.2-0.1-2.8-0.2-4.6-0.2c-2.6,0-5.6,0.4-9.3,1.1
			c-3.6,0.7-6.8,1.6-9.3,2.7V262c0,1.4-0.3,2.5-0.9,3.1s-1.7,1-3.2,1L143.5,266.2L143.5,266.2z"/>
		<path class="st0" d="M208.8,266.2c-1.4,0-2.5-0.3-3.1-1c-0.7-0.7-1-1.7-1-3.1v-76.5c0-1.6,0.3-2.6,1-3.2s1.7-0.9,3.1-0.9h15.9
			c1.6,0,2.6,0.3,3.2,0.9c0.6,0.6,0.9,1.7,0.9,3.2v76.5c0,1.4-0.3,2.5-0.9,3.1c-0.6,0.7-1.7,1-3.2,1H208.8L208.8,266.2z
			 M216.8,168.3c-4.2,0-7.6-1.2-10.1-3.5c-2.6-2.3-3.8-5.5-3.8-9.5s1.3-7.1,3.8-9.5s5.9-3.5,10.1-3.5s7.6,1.2,10.1,3.5
			c2.6,2.3,3.8,5.5,3.8,9.5s-1.3,7.1-3.8,9.5C224.4,167.1,221,168.3,216.8,168.3L216.8,168.3z"/>
		<path class="st0" d="M253.3,266.2c-1.4,0-2.5-0.3-3.1-1c-0.7-0.7-1-1.7-1-3.1v-76.5c0-1.6,0.3-2.6,1-3.2c0.7-0.6,1.7-0.9,3.1-0.9
			h11.9c2.5,0,4.1,1.2,4.6,3.6l1.3,4.5c5.9-3.9,11.1-6.6,15.9-8.2c4.7-1.6,9.5-2.4,14.5-2.4c10,0,17,3.5,21.1,10.6
			c5.6-3.8,11-6.5,15.9-8.1s10.1-2.5,15.4-2.5c7.7,0,13.8,2.2,18,6.5c4.3,4.3,6.4,10.4,6.4,18.1V262c0,1.4-0.3,2.5-0.9,3.1
			c-0.6,0.7-1.7,1-3.2,1h-15.9c-1.4,0-2.5-0.3-3.1-1c-0.7-0.7-1-1.7-1-3.1v-53.3c0-7.5-3.4-11.3-10.1-11.3c-6,0-12,1.4-18.1,4.3V262
			c0,1.4-0.3,2.5-0.9,3.1c-0.6,0.7-1.7,1-3.2,1h-15.9c-1.4,0-2.5-0.3-3.1-1c-0.7-0.7-1-1.7-1-3.1v-53.3c0-7.5-3.4-11.3-10.1-11.3
			c-6.2,0-12.3,1.5-18.3,4.5V262c0,1.4-0.3,2.5-0.9,3.1c-0.6,0.7-1.7,1-3.2,1L253.3,266.2L253.3,266.2z"/>
		<path class="st0" d="M445.5,206.6c0-8.1-5.7-10.4-12.7-10.4c-4.6,0-9.1,1.7-12.2,5c-3,3.3-4.8,8.2-5.6,14.5c0,0,12.4,2.3,21.4,0.8
			C441.1,215.8,445.5,213.1,445.5,206.6L445.5,206.6z M435.4,268.9c-13.5,0-23.8-3.2-32.1-11.6c-5.4-5.5-10.5-15.8-10.5-33.3
			c0-14.2,4.5-25,11.8-32.9c7.3-7.9,18.5-11.5,29-11.5c13.2,0,21,3,27,9c1,1,7,7.2,7,17.2c0,3.4,0.1,7-2.2,12
			c-1.6,3.4-4,5.5-4.6,6.1c-9.8,9-29,8.4-35.5,8l-10.5-1.6c0.7,7.3,2.7,13,7.2,16.2c4.2,3.1,8.8,4.3,18.2,4.3c4.7,0,11-0.9,19.1-3.1
			c0.4-0.1,1.3-0.3,1.6-0.4c0.2,0,1-0.1,1.5,0.1c0.9,0.3,1.9,1.1,1.9,3.6v7.6c0,1.8-0.2,3-0.7,3.7s-1.5,1.4-2.9,2
			C452,267.4,444.2,268.9,435.4,268.9L435.4,268.9z"/>
	</g>
	<g>
		<path class="st0" d="M792.2,206.6c0-8.1-5.7-10.4-12.7-10.4c-4.6,0-9.1,1.7-12.2,5c-3,3.3-4.8,8.2-5.6,14.5c0,0,12.4,2.3,21.4,0.8
			C787.8,215.8,792.2,213.1,792.2,206.6L792.2,206.6z M782.1,268.9c-13.5,0-23.8-3.2-32.1-11.6c-5.4-5.5-10.5-15.8-10.5-33.3
			c0-14.2,4.5-25,11.8-32.9s18.5-11.5,29-11.5c13.2,0,21,3,27,9c1,1,7,7.2,7,17.2c0,3.4,0.1,7-2.2,12c-1.6,3.4-4,5.5-4.7,6.1
			c-9.8,9-29,8.4-35.5,8l-10.5-1.6c0.7,7.3,2.7,13,7.2,16.2c4.2,3.1,8.8,4.3,18.2,4.3c4.7,0,11-0.9,19.1-3.1
			c0.4-0.1,1.3-0.3,1.6-0.4c0.2,0,1-0.1,1.5,0.1c0.9,0.3,1.9,1.1,1.9,3.6v7.6c0,1.8-0.2,3-0.7,3.7s-1.5,1.4-2.9,2
			C798.8,267.4,790.9,268.9,782.1,268.9L782.1,268.9z"/>
		<path class="st0" d="M540.5,266.2c-1.1,0-2-0.1-2.7-0.4c-0.7-0.3-1.3-0.7-1.8-1.3s-1-1.5-1.4-2.6L506.2,188
			c-0.3-0.9-0.6-1.7-0.8-2.3s-0.3-1.3-0.3-1.8c0-1.7,1.1-2.5,3.3-2.5h16.6c1.8,0,3.1,0.3,3.9,1c0.8,0.7,1.5,1.8,1.9,3.3l17.1,58.8
			l17.4-58.8c0.4-1.6,1.1-2.7,1.9-3.3c0.8-0.7,2.1-1,3.9-1h16.1c2.2,0,3.3,0.8,3.3,2.5c0,0.6-0.1,1.2-0.3,1.8
			c-0.2,0.7-0.5,1.4-0.8,2.3L561,261.9c-0.4,1.1-0.9,2-1.4,2.6c-0.5,0.6-1.1,1-1.7,1.3s-1.6,0.4-2.8,0.4H540.5L540.5,266.2z"/>
		<path class="st0" d="M605,266.2c-1.4,0-2.5-0.3-3.2-1c-0.7-0.7-1-1.7-1-3.1v-76.5c0-1.6,0.3-2.6,1-3.2c0.7-0.6,1.7-0.9,3.2-0.9
			h15.9c1.5,0,2.6,0.3,3.2,0.9c0.6,0.6,0.9,1.7,0.9,3.2v76.5c0,1.4-0.3,2.5-0.9,3.1s-1.7,1-3.2,1H605L605,266.2z M613,168.3
			c-4.2,0-7.6-1.2-10.1-3.5c-2.5-2.3-3.8-5.5-3.8-9.5s1.3-7.1,3.8-9.5c2.5-2.3,5.9-3.5,10.1-3.5c4.2,0,7.6,1.2,10.1,3.5
			c2.5,2.3,3.8,5.5,3.8,9.5s-1.3,7.1-3.8,9.5C620.5,167.1,617.2,168.3,613,168.3L613,168.3z"/>
		<path class="st0" d="M683.8,249.8c5.3,0,10.4-1.6,15.3-4.6v-43.8c-4.8-2.8-10.2-4.1-16.4-4.1c-5.9,0-10.2,2.2-13.1,6.6
			c-2.9,4.4-4.3,11-4.3,19.8c0,8.9,1.5,15.4,4.6,19.8S677.5,249.8,683.8,249.8L683.8,249.8z M675.8,268c-7.2,0-13.5-1.9-18.8-5.6
			s-9.4-8.9-12.2-15.4c-2.8-6.6-4.2-14.2-4.2-22.8c0-13.7,3.3-24.7,9.8-32.9c6.5-8.2,15.2-12.4,25.9-12.4c8.7,0,16.3,2.5,22.7,7.5
			v-38.8c0-1.6,0.3-2.6,1-3.2c0.7-0.6,1.7-0.9,3.2-0.9h15.9c1.5,0,2.6,0.3,3.2,0.9c0.6,0.6,0.9,1.7,0.9,3.2v114.5
			c0,1.4-0.3,2.5-0.9,3.1c-0.6,0.7-1.7,1-3.2,1h-13.3c-1.3,0-2.3-0.3-3.1-0.8c-0.7-0.5-1.2-1.5-1.6-2.8l-1-3.8
			C693.4,264.9,685.2,268,675.8,268L675.8,268z"/>
		<path class="st0" d="M867.7,250.1c11.6,0,17.4-8.8,17.4-26.4c0-17.5-5.8-26.2-17.4-26.2s-17.4,8.7-17.4,26.2
			C850.3,241.3,856.1,250.1,867.7,250.1L867.7,250.1z M867.7,268.7c-13.2,0-23.5-4-30.9-11.9c-7.4-7.9-11.1-18.9-11.1-33.1
			c0-14.1,3.7-25,11.1-32.9c7.4-7.9,17.7-11.9,30.9-11.9s23.5,4,30.9,11.9c7.4,7.9,11.1,18.9,11.1,32.9c0,14.2-3.7,25.2-11.1,33.1
			C891.2,264.8,880.9,268.7,867.7,268.7L867.7,268.7z"/>
	</g>
	<g>
		<path class="st1" d="M251.2,312.4v1.4c0.2,1.2,0.8,2.4,1.9,3.5c59.2,57.6,137.4,92.2,224.3,92.2c62,0,134-21,183.6-60.5
			c8.2-6.6,1.2-16.4-7.2-12.5c-55.7,25.5-116.2,37.8-171.2,37.8c-81.6,0-160.6-24.1-224.4-64.2c-1.1-0.7-2.2-1-3.2-1
			C253,309,251.5,310.5,251.2,312.4"/>
		<path class="st1" d="M620.1,318.6c-1.8,1.3-2.7,2.9-2.9,4.2v0.8c0.2,1.5,1.6,2.5,4.1,2.2c16-2.1,51.6-6.6,58,2.1
			c6.3,8.7-7.1,44.7-13,60.8c-1.8,4.8,2.1,6.8,6.2,3.1c26.7-23.9,33.5-74,28.1-81.3c-2.6-3.5-14.8-6.7-30-6.7
			C654.3,303.8,634.8,307.5,620.1,318.6"/>
	</g>
	<g>
		<path class="st0" d="M303.7,84.6c1.6,0,3.4-0.4,5.1-1.1c1.8-0.7,3.4-1.7,4.9-3v-8.6c-2.9-0.5-5.5-0.7-7.8-0.7
			c-5.8,0-8.6,2.3-8.6,6.9c0,2.1,0.6,3.6,1.7,4.8S301.6,84.6,303.7,84.6L303.7,84.6z M299.6,94.3c-4.9,0-8.8-1.4-11.8-4.2
			c-3-2.8-4.4-6.5-4.4-11.1c0-3.2,0.8-6.1,2.5-8.6s4-4.4,7-5.7s6.4-1.9,10.2-1.9c3.2,0,6.7,0.4,10.5,1.3v-5c0-3-0.6-5.1-1.9-6.2
			s-3.6-1.7-7-1.7c-4.5,0-9.6,0.8-15.2,2.4c-0.2,0.1-0.4,0.1-0.6,0.2c-0.2,0-0.4,0-0.5,0c-1.1,0-1.7-0.8-1.7-2.3v-4.5
			c0-1.1,0.1-1.8,0.4-2.2c0.3-0.4,0.9-0.8,1.8-1.2c2.3-1,5.1-1.8,8.4-2.3c3.3-0.6,6.6-0.8,10-0.8c6.8,0,11.8,1.4,14.9,4.1
			s4.7,7.1,4.7,13v32.7c0,0.9-0.2,1.5-0.5,1.9c-0.4,0.4-1,0.6-1.9,0.6h-6.8c-0.8,0-1.4-0.2-1.8-0.5c-0.4-0.3-0.7-0.9-0.9-1.7
			l-0.6-2.3c-2,1.8-4.4,3.3-7.1,4.4C304.7,93.8,302.1,94.3,299.6,94.3L299.6,94.3z"/>
		<path class="st0" d="M347.3,92.7c-0.9,0-1.5-0.2-1.9-0.6c-0.4-0.4-0.6-1-0.6-1.9V44.5c0-0.9,0.2-1.6,0.6-1.9
			c0.4-0.4,1-0.5,1.9-0.5h7.1c1.5,0,2.5,0.7,2.8,2.2l0.8,2.7c3.5-2.3,6.7-4,9.5-4.9s5.7-1.4,8.7-1.4c6,0,10.2,2.1,12.6,6.3
			c3.4-2.2,6.5-3.9,9.5-4.9s6-1.5,9.2-1.5c4.6,0,8.2,1.3,10.8,3.9c2.5,2.6,3.8,6.2,3.8,10.8v35c0,0.9-0.2,1.5-0.5,1.9
			c-0.4,0.4-1,0.6-1.9,0.6h-9.5c-0.9,0-1.5-0.2-1.9-0.6c-0.4-0.4-0.6-1-0.6-1.9V58.4c0-4.5-2-6.8-6.1-6.8c-3.6,0-7.2,0.9-10.8,2.6
			v36c0,0.9-0.2,1.5-0.5,1.9c-0.4,0.4-1,0.6-1.9,0.6h-9.5c-0.9,0-1.5-0.2-1.9-0.6c-0.4-0.4-0.6-1-0.6-1.9V58.4c0-4.5-2-6.8-6-6.8
			c-3.7,0-7.4,0.9-10.9,2.7v35.9c0,0.9-0.2,1.5-0.5,1.9c-0.4,0.4-1,0.6-1.9,0.6L347.3,92.7L347.3,92.7z"/>
		<path class="st0" d="M456.9,84.6c1.6,0,3.4-0.4,5.1-1.1c1.8-0.7,3.4-1.7,4.9-3v-8.6c-2.9-0.5-5.5-0.7-7.8-0.7
			c-5.8,0-8.6,2.3-8.6,6.9c0,2.1,0.6,3.6,1.7,4.8S454.8,84.6,456.9,84.6L456.9,84.6z M452.8,94.3c-4.9,0-8.8-1.4-11.8-4.2
			c-3-2.8-4.4-6.5-4.4-11.1c0-3.2,0.8-6.1,2.5-8.6s4-4.4,7-5.7s6.4-1.9,10.2-1.9c3.2,0,6.7,0.4,10.5,1.3v-5c0-3-0.6-5.1-1.9-6.2
			s-3.6-1.7-7-1.7c-4.5,0-9.6,0.8-15.2,2.4c-0.2,0.1-0.4,0.1-0.6,0.2c-0.2,0-0.4,0-0.5,0c-1.1,0-1.7-0.8-1.7-2.3v-4.5
			c0-1.1,0.1-1.8,0.4-2.2c0.3-0.4,0.9-0.8,1.8-1.2c2.3-1,5.1-1.8,8.4-2.3c3.3-0.6,6.6-0.8,10-0.8c6.8,0,11.8,1.4,14.9,4.1
			s4.7,7.1,4.7,13v32.7c0,0.9-0.2,1.5-0.5,1.9c-0.4,0.4-1,0.6-1.9,0.6H471c-0.8,0-1.4-0.2-1.8-0.5c-0.4-0.3-0.7-0.9-0.9-1.7
			l-0.6-2.3c-2,1.8-4.4,3.3-7.1,4.4C457.9,93.8,455.3,94.3,452.8,94.3L452.8,94.3z"/>
		<path class="st0" d="M496.7,92.7c-0.9,0-1.5-0.2-1.9-0.6c-0.4-0.4-0.6-1-0.6-1.9v-5.1c0-1.1,0.1-1.9,0.4-2.4
			c0.2-0.6,0.6-1.2,1.2-1.9l24.5-28.1h-22.6c-0.9,0-1.5-0.2-1.9-0.6c-0.4-0.4-0.6-1-0.6-1.9v-5.7c0-0.9,0.2-1.6,0.6-1.9
			c0.4-0.4,1-0.5,1.9-0.5h36.1c0.9,0,1.6,0.2,1.9,0.5c0.4,0.4,0.5,1,0.5,1.9v5.3c0,1.1-0.1,1.9-0.3,2.4s-0.7,1.2-1.2,1.9L509.9,82
			h24.4c0.9,0,1.6,0.2,1.9,0.6c0.4,0.4,0.5,1,0.5,1.9v5.8c0,0.9-0.2,1.5-0.5,1.9c-0.4,0.4-1,0.6-1.9,0.6L496.7,92.7L496.7,92.7z"/>
		<path class="st0" d="M572.3,83.1c7,0,10.4-5.3,10.4-15.8c0-10.5-3.5-15.7-10.4-15.7s-10.4,5.2-10.4,15.7
			C561.9,77.8,565.3,83.1,572.3,83.1L572.3,83.1z M572.3,94.2c-7.9,0-14-2.4-18.5-7.1c-4.4-4.7-6.7-11.3-6.7-19.8
			c0-8.4,2.2-15,6.7-19.7c4.4-4.7,10.6-7.1,18.5-7.1s14,2.4,18.5,7.1s6.7,11.3,6.7,19.7c0,8.5-2.2,15.1-6.7,19.8
			C586.3,91.9,580.2,94.2,572.3,94.2L572.3,94.2z"/>
		<path class="st0" d="M615.1,92.7c-0.9,0-1.5-0.2-1.9-0.6s-0.6-1-0.6-1.9V44.5c0-0.9,0.2-1.6,0.6-1.9c0.4-0.4,1-0.5,1.9-0.5h7.2
			c1.5,0,2.5,0.7,2.8,2.2l0.9,3.3c6-4.6,12.3-7,19.1-7c4.7,0,8.3,1.3,10.9,3.8s3.8,6.2,3.8,10.9v35c0,0.9-0.2,1.5-0.5,1.9
			c-0.4,0.4-1,0.6-1.9,0.6h-9.5c-0.9,0-1.5-0.2-1.9-0.6s-0.6-1-0.6-1.9V59.5c0-2.7-0.6-4.7-1.8-6s-3-1.9-5.5-1.9
			c-3.6,0-7.2,1.1-10.8,3.4v35.2c0,0.9-0.2,1.5-0.5,1.9c-0.4,0.4-1,0.6-1.9,0.6H615.1L615.1,92.7z"/>
	</g>
</g>
</svg>
