<svg width="1447" height="1375" viewBox="0 0 1447 1375" fill="none" xmlns="http://www.w3.org/2000/svg">
<g clip-path="url(#clip0_6_2)">
<path d="M121.103 292.784C168.323 292.784 206.613 331.014 206.613 378.189C206.613 425.359 168.323 463.599 121.103 463.599C73.8834 463.599 35.5934 425.359 35.5934 378.189C35.5934 331.014 73.8834 292.784 121.103 292.784ZM121.103 261.334C56.4834 261.334 3.95337 313.794 3.95337 378.339C3.95337 442.889 56.4634 495.339 121.103 495.339C185.743 495.339 238.256 442.889 238.256 378.339C238.256 313.794 185.743 261.334 121.103 261.334Z" fill="white"/>
<path d="M1011.49 551.989C1003.22 551.989 995.256 551.539 987.596 550.789C900.906 541.649 824.726 464.599 824.436 386.039C824.436 350.509 837.506 315.574 864.556 279.164C886.646 249.634 898.516 219.194 899.866 188.764C901.666 148.594 887.696 110.074 860.496 80.3843C833.296 50.6943 796.196 33.3143 755.926 31.6543C704.236 29.4043 655.566 53.3843 625.816 95.6743L625.366 96.2643C584.506 148.434 538.226 207.664 456.646 220.254H456.196C382.726 229.234 327.136 289.354 323.836 363.269C323.086 381.709 326.236 400.299 333.606 420.079C336.606 428.179 332.556 437.169 324.446 440.169C316.326 443.169 307.316 439.119 304.316 431.029C295.446 407.189 291.546 384.559 292.596 361.919C296.506 272.734 363.656 200.014 452.306 189.234C521.276 178.584 561.536 127.174 600.596 77.2543C636.626 26.2643 695.076 -2.52566 757.576 0.174335C806.256 2.26434 851.026 23.2643 883.926 59.0843C916.826 94.9243 933.656 141.384 931.546 189.954C929.896 226.834 915.916 262.954 890.086 297.754C867.246 328.484 856.126 357.269 856.276 385.739C856.426 448.249 920.886 511.959 991.346 519.459C1007.12 521.109 1024.85 520.809 1042.58 518.409C1051.3 517.359 1059.11 523.349 1060.15 531.909C1061.2 540.449 1055.19 548.399 1046.63 549.449C1034.91 550.949 1023.19 551.699 1011.78 551.699L1011.48 551.999L1011.49 551.989Z" fill="white"/>
<path d="M1410.67 571.329C1403.91 571.329 1397.6 566.829 1395.64 559.939C1382.27 513.469 1343.2 462.949 1273.65 460.699C1244.05 459.799 1224.97 462.799 1205.74 471.639C1197.93 475.239 1188.61 471.789 1185.01 463.989C1181.41 456.199 1184.86 446.899 1192.67 443.299C1216.41 432.359 1240.29 428.459 1274.7 429.509C1345.91 431.759 1405.25 479.579 1425.84 551.379C1428.24 559.629 1423.44 568.319 1415.03 570.709C1413.53 571.159 1412.18 571.309 1410.67 571.309V571.329Z" fill="white"/>
<path d="M971.966 1374.84C969.256 1374.84 966.556 1374.84 963.846 1374.69C869.736 1370.48 794.866 1296.71 789.446 1202.96C780.126 1121.98 723.746 1057.68 634.596 1026.57C521.686 987.049 388.036 1009.9 316.626 1080.8C280.396 1120.61 228.526 1142.1 174.253 1139.7C73.8434 1135.35 -4.17659 1050.01 0.173415 949.489C1.22341 925.599 12.0534 896.309 21.0734 878.569C24.9834 870.909 34.4534 867.749 42.1134 871.659C49.7734 875.569 52.9334 885.029 49.0334 892.699C41.0634 908.479 32.2034 933.269 31.4434 950.839C27.8334 1034.08 92.4834 1104.69 175.463 1108.3C220.416 1110.25 263.416 1092.37 293.486 1059.32L294.086 1058.72C373.616 979.539 521.096 953.549 644.986 996.819C746.016 1032.28 810.056 1106.2 820.586 1199.8V1200.7C824.946 1278.52 887.036 1339.83 965.066 1343.28C1048.51 1346.89 1119.17 1282.13 1122.93 1198.89C1124.89 1153.81 1097.67 1104.98 1071.66 1078.54C994.536 1000.72 1005.51 931.449 1028.36 886.979C1032.27 879.319 1041.74 876.159 1049.56 880.219C1057.22 884.129 1060.38 893.589 1056.33 901.399C1030.02 952.639 1042.8 1004.77 1094.07 1056.61C1125.79 1088.61 1156.76 1145.56 1154.36 1200.4C1150 1298.21 1068.96 1374.98 971.846 1374.98L971.996 1374.83L971.976 1374.81L971.966 1374.84Z" fill="white"/>
<path d="M1395.44 851.079C1423.72 851.079 1446.58 828.249 1446.58 799.999C1446.58 771.749 1423.72 749.069 1395.44 749.069C1367.16 749.069 1344.3 771.899 1344.3 799.999C1344.3 828.099 1367.16 851.079 1395.44 851.079Z" fill="white"/>
<path d="M1307.28 848.229V709.399C1307.28 699.329 1313.6 682.509 1325.18 677.999C1337.06 673.489 1347.89 678.749 1360.83 683.559C1403.7 699.939 1436.95 678.299 1442.21 650.349C1447.47 622.409 1428.97 595.509 1400.84 590.399C1366.39 583.939 1342.17 594.749 1314.04 616.399C1312.08 617.899 1306.67 622.559 1304.86 624.059C1298.24 603.169 1278.68 588.149 1255.66 588.149C1227.23 588.149 1204.06 611.139 1204.06 639.679V848.219H1307.26L1307.28 848.229Z" fill="white"/>
<path d="M1136.54 572.069C1164.82 572.069 1187.68 549.239 1187.68 520.989C1187.68 492.739 1164.82 469.909 1136.54 469.909C1108.26 469.909 1085.4 492.739 1085.4 520.989C1085.4 549.239 1108.26 572.069 1136.54 572.069ZM1187.99 754.469C1187.99 817.269 1157.3 857.989 1083.74 857.989H1080.88C1055.16 857.989 1028.23 851.229 1011.38 840.409C982.187 821.629 963.087 790.679 982.347 758.079C1000.25 727.879 1062.68 722.319 1071.86 774.909C1075.17 793.389 1084.94 790.979 1084.94 773.859V648.549C1084.94 611.139 1108.11 588.159 1136.54 588.159C1164.97 588.159 1188.14 611.299 1188.14 639.689V754.479H1187.99V754.469Z" fill="white"/>
<path d="M971.067 830.199C971.067 826.739 970.017 823.589 968.357 820.739L911.797 735.249L950.907 664.189C965.347 639.699 957.227 607.999 932.707 593.579C908.187 579.159 876.447 587.269 862.007 611.759L815.217 695.289V639.699C815.217 611.149 792.047 588.169 763.617 588.169C735.187 588.169 712.017 611.309 712.017 639.699V848.089H815.367V766.499L869.827 848.089H953.167C963.097 848.089 971.217 839.969 971.217 830.059L971.067 830.209H971.047L971.067 830.199Z" fill="white"/>
<path d="M585.507 767.389C579.337 778.659 571.517 785.269 562.337 785.269C553.157 785.269 545.337 778.659 539.167 767.389C533.147 755.969 529.537 741.389 529.537 724.119C529.537 706.849 533.147 692.269 539.167 680.849C545.337 669.579 553.157 662.969 562.337 662.969C571.517 662.969 579.337 669.729 585.507 680.849C590.017 689.259 593.027 699.479 594.377 711.349H697.727C694.717 679.049 680.277 649.599 658.467 628.109C633.947 603.619 599.647 588.299 562.187 588.299C524.727 588.299 490.437 603.629 465.907 628.109C441.387 652.599 426.047 686.849 426.047 724.269C426.047 761.689 441.397 795.929 465.907 820.429C484.717 839.209 517.507 860.239 562.187 860.239C595.737 860.239 626.717 847.919 650.337 827.789C667.637 813.219 693.207 783.759 697.577 737.049H594.227C592.867 748.769 589.867 759.139 585.357 767.549L585.507 767.399V767.389Z" fill="white"/>
<path d="M400.477 554.799C410.857 544.429 417.327 530.159 417.327 514.229C417.327 498.299 410.857 484.029 400.477 473.659C390.097 463.289 375.807 456.829 359.857 456.829C343.907 456.829 329.617 463.289 319.237 473.659C308.857 484.029 302.387 498.299 302.387 514.229C302.387 530.159 308.857 544.429 319.237 554.799L331.877 567.419C353.087 588.599 354.587 594.159 334.437 614.299L322.857 625.859C313.387 635.319 307.507 648.399 307.507 662.669V848.219H411.907V662.669C411.907 648.249 406.047 635.179 396.557 625.859L384.977 614.299C364.817 594.169 366.327 588.609 387.537 567.419L400.177 554.799H400.477Z" fill="white"/>
<path d="M157.527 588.159C120.067 588.159 85.7766 603.489 61.2466 627.969C36.7266 652.459 21.3866 686.709 21.3866 724.129V848.229H124.737V726.229C124.737 711.359 128.347 698.579 134.367 688.819C140.387 679.049 148.357 673.349 157.537 673.349C166.717 673.349 174.687 679.059 180.707 688.819C186.727 698.589 190.337 711.359 190.337 726.229V848.229H293.687V724.129C293.687 686.719 278.337 652.469 253.827 627.969C229.307 603.479 195.007 588.159 157.547 588.159" fill="white"/>
</g>
<defs>
<clipPath id="clip0_6_2">
<rect width="1446.6" height="1375" fill="white"/>
</clipPath>
</defs>
</svg>
