<svg width="217" height="142" viewBox="0 0 217 142" fill="none" xmlns="http://www.w3.org/2000/svg">
<path d="M24.334 104.353C22.5729 104.982 20.7382 105.536 18.831 106.016C16.2325 106.708 14.5869 107.387 13.8955 108.057C13.1831 108.747 12.8258 109.533 12.8258 110.411C12.8258 111.415 13.1768 112.238 13.8798 112.875C14.5817 113.513 15.6146 113.834 16.9775 113.834C18.4002 113.834 19.7273 113.488 20.9536 112.796C22.1799 112.107 23.0489 111.264 23.5627 110.271C24.0755 109.276 24.334 107.983 24.334 106.394V104.353ZM13.2346 97.6371L1.0056 96.3499C1.46689 94.215 2.13308 92.5354 3.00208 91.3111C3.87212 90.0879 5.12358 89.0273 6.7586 88.1272C7.93232 87.4778 9.54632 86.9753 11.6006 86.6207C13.6538 86.264 15.8762 86.0857 18.2657 86.0857C22.1011 86.0857 25.182 86.3007 27.5073 86.7298C29.8348 87.1578 31.7735 88.0527 33.3245 89.4123C34.4141 90.3554 35.2736 91.6899 35.902 93.4156C36.5314 95.1413 36.8456 96.7894 36.8456 98.3588V113.078C36.8456 114.648 36.9444 115.877 37.144 116.767C37.3426 117.658 37.7777 118.793 38.4491 120.173H26.4387C25.9564 119.314 25.6433 118.662 25.4951 118.211C25.349 117.761 25.203 117.054 25.0558 116.091C23.3788 117.704 21.7123 118.854 20.0573 119.545C17.7939 120.465 15.1638 120.926 12.1659 120.926C8.18346 120.926 5.16038 120.006 3.09664 118.163C1.03186 116.323 0 114.053 0 111.353C0 108.821 0.742895 106.739 2.23185 105.107C3.71976 103.475 6.46544 102.26 10.4689 101.466C15.2689 100.503 18.3803 99.8286 19.8062 99.4404C21.231 99.0554 22.7399 98.5466 24.334 97.9203C24.334 96.3498 24.0082 95.2515 23.3588 94.6241C22.7095 93.9947 21.5673 93.6831 19.9312 93.6831C17.8359 93.6831 16.264 94.0156 15.2164 94.687C14.3978 95.2105 13.7389 96.1935 13.2346 97.6371Z" fill="white"/>
<path d="M58.8521 74.1586V86.8389H65.8945V96.1925H58.8521V108.002C58.8521 109.422 58.9888 110.362 59.2609 110.821C59.6802 111.531 60.4136 111.887 61.4623 111.887C62.4048 111.887 63.7256 111.615 65.4227 111.072L66.3652 119.89C63.2013 120.58 60.2455 120.927 57.5009 120.927C54.3149 120.927 51.9674 120.519 50.4585 119.703C48.9496 118.888 47.8337 117.65 47.1097 115.989C46.3878 114.328 46.0253 111.637 46.0253 107.917V96.1925H41.3104V86.8389H46.0253V80.7185L58.8521 74.1586Z" fill="white"/>
<path d="M94.7553 104.353C92.9942 104.982 91.1595 105.536 89.2534 106.016C86.6537 106.708 85.0093 107.387 84.3168 108.057C83.6054 108.747 83.2482 109.533 83.2482 110.411C83.2482 111.415 83.5991 112.238 84.3021 112.875C85.004 113.513 86.0359 113.834 87.3987 113.834C88.8236 113.834 90.1487 113.488 91.3749 112.796C92.6012 112.107 93.4701 111.264 93.985 110.271C94.4978 109.276 94.7553 107.983 94.7553 106.394V104.353ZM83.6579 97.6371L71.4279 96.3499C71.8882 94.215 72.5544 92.5354 73.4233 91.3111C74.2934 90.0879 75.5459 89.0273 77.1799 88.1272C78.3547 87.4778 79.9687 86.9753 82.023 86.6207C84.0762 86.264 86.2976 86.0857 88.6881 86.0857C92.5224 86.0857 95.6043 86.3007 97.9297 86.7298C100.256 87.1578 102.195 88.0527 103.747 89.4123C104.836 90.3554 105.695 91.6899 106.324 93.4156C106.953 95.1413 107.267 96.7894 107.267 98.3588V113.078C107.267 114.648 107.367 115.877 107.565 116.767C107.765 117.658 108.2 118.793 108.872 120.173H96.861C96.3787 119.314 96.0646 118.662 95.9185 118.211C95.7714 117.761 95.6242 117.054 95.4792 116.091C93.8011 117.704 92.1346 118.854 90.4796 119.545C88.2152 120.465 85.5862 120.926 82.5883 120.926C78.6059 120.926 75.5827 120.006 73.5179 118.163C71.4532 116.323 70.4224 114.053 70.4224 111.353C70.4224 108.821 71.1652 106.739 72.6542 105.107C74.1421 103.475 76.8867 102.26 80.8912 101.466C85.6902 100.503 88.8026 99.8286 90.2274 99.4404C91.6534 99.0554 93.1613 98.5466 94.7553 97.9203C94.7553 96.3498 94.4306 95.2515 93.7801 94.6241C93.1307 93.9947 91.9886 93.6831 90.3535 93.6831C88.2572 93.6831 86.6853 94.0156 85.6377 94.687C84.8201 95.2105 84.1602 96.1935 83.6579 97.6371Z" fill="white"/>
<path d="M115.033 86.8399H126.98V91.7045C128.702 89.6755 130.438 88.232 132.19 87.3718C133.943 86.5147 136.058 86.0866 138.535 86.0866C141.2 86.0866 143.31 86.5566 144.864 87.4987C146.416 88.4397 147.686 89.8413 148.673 91.7045C150.682 89.5287 152.514 88.0474 154.166 87.2627C155.82 86.479 157.861 86.0866 160.288 86.0866C163.868 86.0866 166.662 87.1483 168.671 89.2706C170.681 91.396 171.685 94.7185 171.685 99.2369V120.173H158.858V101.183C158.858 99.6764 158.566 98.5581 157.981 97.8258C157.125 96.675 156.06 96.0991 154.786 96.0991C153.282 96.0991 152.07 96.6435 151.152 97.7304C150.232 98.8193 149.772 100.567 149.772 102.973V120.173H136.945V101.811C136.945 100.347 136.861 99.3533 136.693 98.8298C136.42 97.9916 135.947 97.317 135.274 96.8051C134.601 96.2931 133.812 96.0361 132.908 96.0361C131.435 96.0361 130.227 96.5911 129.281 97.7C128.333 98.8088 127.86 100.63 127.86 103.161V120.173H115.033V86.8399Z" fill="white"/>
<path d="M202.086 104.353C200.325 104.982 198.49 105.536 196.583 106.016C193.985 106.708 192.339 107.387 191.648 108.057C190.935 108.747 190.578 109.533 190.578 110.411C190.578 111.415 190.929 112.238 191.632 112.875C192.334 113.513 193.367 113.834 194.73 113.834C196.153 113.834 197.48 113.488 198.706 112.796C199.932 112.107 200.801 111.264 201.315 110.271C201.829 109.276 202.086 107.983 202.086 106.394V104.353ZM190.987 97.6371L178.758 96.3499C179.219 94.215 179.885 92.5354 180.754 91.3111C181.624 90.0879 182.876 89.0273 184.511 88.1272C185.685 87.4778 187.299 86.9753 189.353 86.6207C191.407 86.264 193.629 86.0857 196.018 86.0857C199.853 86.0857 202.934 86.3007 205.261 86.7298C207.587 87.1578 209.526 88.0527 211.077 89.4123C212.166 90.3554 213.026 91.6899 213.654 93.4156C214.284 95.1413 214.598 96.7894 214.598 98.3588V113.078C214.598 114.648 214.698 115.877 214.896 116.767C215.095 117.658 215.531 118.793 216.201 120.173H204.192C203.71 119.314 203.396 118.662 203.248 118.211C203.101 117.761 202.955 117.054 202.808 116.091C201.131 117.704 199.465 118.854 197.81 119.545C195.546 120.465 192.916 120.926 189.919 120.926C185.936 120.926 182.914 120.006 180.849 118.163C178.784 116.323 177.752 114.053 177.752 111.353C177.752 108.821 178.495 106.739 179.984 105.107C181.472 103.475 184.218 102.26 188.221 101.466C193.021 100.503 196.134 99.8286 197.558 99.4404C198.983 99.0554 200.492 98.5466 202.086 97.9203C202.086 96.3498 201.761 95.2515 201.111 94.6241C200.462 93.9947 199.32 93.6831 197.683 93.6831C195.588 93.6831 194.016 94.0156 192.969 94.687C192.151 95.2105 191.491 96.1935 190.987 97.6371Z" fill="white"/>
<path fill-rule="evenodd" clip-rule="evenodd" d="M111.928 73.9688C111.325 69.5826 111.593 63.9102 111.593 58.5956C111.593 53.2746 110.712 47.6327 112.932 44.2242H117.953C115.16 47.4522 115.468 53.774 115.61 59.9321C121.568 56.745 125.631 51.6674 127.661 44.5578H132.347C130.095 53.5254 125.509 58.8694 118.623 63.2734C117.072 64.2648 114.728 65.2142 115.61 67.9533C128.59 62.4205 137.178 52.5015 136.365 33.1963H114.94C113.044 30.0753 110.81 27.2921 107.575 25.5107V20.8318C112.326 22.1054 115.554 24.8981 117.285 29.1867H127.326C124.151 19.9905 118.023 13.7443 107.575 11.8087V7.46238C120.787 9.64866 128.499 17.3195 132.012 29.1867H135.359C130.618 13.4232 120.096 3.42971 98.5391 4.45466C97.7584 8.13483 98.4256 13.2543 98.2039 17.4905C93.9293 18.5679 90.8379 20.8308 88.4978 23.8385C93.4932 24.3714 94.1636 20.5832 98.2039 20.1625V25.175C95.2375 28.5636 87.6351 27.3225 81.4671 27.5166C84.0846 21.5505 88.4064 17.2881 94.5209 14.8164V5.12398C79.9329 9.27518 70.8531 18.9225 69.0815 35.8714C76.3361 36.6488 85.0387 35.9827 92.8502 36.204C92.8134 35.1696 93.0015 34.3492 93.5163 33.8646C87.2695 33.0851 79.5714 33.7534 72.7634 33.532C74.5539 20.9473 81.3357 13.3456 91.5104 9.1346C91.8078 10.8278 91.4001 11.6251 91.5104 13.8135C85.0828 17.0877 80.4762 22.1799 78.1203 29.5203C85.7175 30.1991 95.7923 30.455 101.216 27.8502V7.1298H104.899C104.722 9.1818 105.282 11.9671 104.563 13.4778C114.234 14.2982 119.602 19.4093 123.642 25.8433C119.405 27.8019 118.439 24.7271 116.614 22.8356C113.69 19.8069 109.844 17.8713 104.899 17.1548C104.457 18.5763 105.479 24.6463 104.563 27.5166C109.194 28.7944 112.435 31.4643 112.932 36.8733H133.353V40.8818H126.322C125.278 45.3373 122.319 52.4584 118.955 54.5839C118.025 48.0114 121.278 44.8442 121.969 40.8818H112.597C111.345 42.6412 110.091 44.3973 108.58 45.8944V67.284C107.118 67.049 106.695 67.8516 105.235 67.6177C104.465 60.1398 105.111 51.2531 104.899 43.2202C110.345 40.9007 109.04 31.5797 102.891 31.5262C96.2694 31.4664 94.419 41.4641 101.886 43.2202V67.6177C84.8285 66.7773 75.9767 56.1197 72.7634 42.5541H77.4478C80.1305 53.4676 86.6852 60.5143 97.8697 62.9387C98.6473 60.7073 97.9832 57.0366 98.2039 54.2513C92.6221 52.2497 88.9854 48.3062 86.8219 42.8877C87.6162 42.1198 89.8281 42.767 91.1752 42.5541C93.1696 45.0163 94.8908 47.7565 98.2039 48.9021C98.2879 43.9179 93.1854 44.1109 92.8502 39.5453H83.8103C84.6908 47.9149 88.812 53.047 95.1924 55.9204V59.9321C86.1073 56.8583 81.0856 49.7308 79.1249 39.5453H69.4167C71.162 58.3648 84.4534 72.4497 108.58 69.9581V74.3024C84.7434 77.3709 66.1687 61.3809 64.396 41.8848C61.9151 14.6055 82.6218 -1.51458 106.906 0.112545C124.486 1.28751 139.922 14.9098 141.385 33.8646C143 54.8021 130.322 68.6804 111.928 73.9688Z" fill="white"/>
<path d="M3.82062 129.17H10.5835V130.528H5.45983V134.695H10.1915V136.034H5.45983V141.708H3.82062V129.17Z" fill="white"/>
<path d="M46.1293 141.707H44.4901V129.169H46.1293V141.707Z" fill="white"/>
<path d="M80.5393 129.17H82.1774V140.349H87.5437V141.708H80.5393V129.17Z" fill="white"/>
<path d="M131.529 136.201C131.436 134.452 131.325 132.332 131.325 130.788H131.288C130.84 132.239 130.337 133.82 129.703 135.55L127.486 141.632H126.256L124.207 135.661C123.611 133.875 123.126 132.277 122.772 130.788H122.735C122.699 132.351 122.605 134.434 122.494 136.331L122.158 141.707H120.612L121.487 129.169H123.555L125.698 135.234C126.219 136.777 126.63 138.154 126.964 139.457H127.003C127.337 138.191 127.784 136.815 128.343 135.234L130.58 129.169H132.646L133.43 141.707H131.827L131.529 136.201Z" fill="white"/>
<path d="M174.005 135.829H169.142V140.349H174.583V141.707H167.503V129.169H174.304V130.528H169.142V134.49H174.005V135.829Z" fill="white"/>
<path d="M208.079 139.736C208.805 140.2 209.849 140.554 210.966 140.554C212.625 140.554 213.593 139.68 213.593 138.415C213.593 137.262 212.923 136.574 211.228 135.941C209.178 135.197 207.912 134.118 207.912 132.37C207.912 130.417 209.532 128.966 211.973 128.966C213.239 128.966 214.189 129.264 214.73 129.579L214.283 130.9C213.892 130.658 213.053 130.304 211.916 130.304C210.202 130.304 209.55 131.328 209.55 132.183C209.55 133.355 210.315 133.932 212.047 134.601C214.171 135.42 215.233 136.444 215.233 138.285C215.233 140.219 213.817 141.911 210.855 141.911C209.644 141.911 208.321 141.54 207.651 141.093L208.079 139.736Z" fill="white"/>
</svg>
